<svg width="512" height="512" viewBox="0 0 512 512" fill="none" xmlns="http://www.w3.org/2000/svg">
<path d="M211.2 11.5L448 11.5C459.391 11.5 467.243 11.509 473.336 12.0068C479.294 12.4937 482.552 13.3904 484.938 14.6064C490.301 17.3388 494.661 21.6989 497.394 27.0615C498.61 29.4483 499.506 32.7056 499.993 38.6641C500.491 44.7572 500.5 52.6092 500.5 64V300.8C500.5 337.953 500.491 365.126 498.74 386.561C497 407.861 493.596 422.479 487.366 434.706C475.813 457.379 457.379 475.813 434.706 487.366C422.479 493.596 407.861 497 386.561 498.74C365.126 500.491 337.953 500.5 300.8 500.5H64C52.6092 500.5 44.7572 500.491 38.6641 499.993C32.7056 499.506 29.4483 498.61 27.0615 497.394C21.6989 494.661 17.3388 490.301 14.6064 484.938C13.3904 482.552 12.4937 479.294 12.0068 473.336C11.509 467.243 11.5 459.391 11.5 448L11.5 211.2C11.5 174.047 11.5085 146.874 13.2598 125.439C15.0001 104.139 18.4039 89.5207 24.6338 77.2939C36.1865 54.6206 54.6206 36.1865 77.2939 24.6338C89.5207 18.4039 104.139 15.0001 125.439 13.2598C146.874 11.5085 174.047 11.5 211.2 11.5Z" fill="#1F2328"/>
<path d="M211.2 11.5L448 11.5C459.391 11.5 467.243 11.509 473.336 12.0068C479.294 12.4937 482.552 13.3904 484.938 14.6064C490.301 17.3388 494.661 21.6989 497.394 27.0615C498.61 29.4483 499.506 32.7056 499.993 38.6641C500.491 44.7572 500.5 52.6092 500.5 64V300.8C500.5 337.953 500.491 365.126 498.74 386.561C497 407.861 493.596 422.479 487.366 434.706C475.813 457.379 457.379 475.813 434.706 487.366C422.479 493.596 407.861 497 386.561 498.74C365.126 500.491 337.953 500.5 300.8 500.5H64C52.6092 500.5 44.7572 500.491 38.6641 499.993C32.7056 499.506 29.4483 498.61 27.0615 497.394C21.6989 494.661 17.3388 490.301 14.6064 484.938C13.3904 482.552 12.4937 479.294 12.0068 473.336C11.509 467.243 11.5 459.391 11.5 448L11.5 211.2C11.5 174.047 11.5085 146.874 13.2598 125.439C15.0001 104.139 18.4039 89.5207 24.6338 77.2939C36.1865 54.6206 54.6206 36.1865 77.2939 24.6338C89.5207 18.4039 104.139 15.0001 125.439 13.2598C146.874 11.5085 174.047 11.5 211.2 11.5Z" fill="url(#paint0_linear_3459_90)" fill-opacity="0.5" style="mix-blend-mode:overlay"/>
<path d="M211.2 11.5L448 11.5C459.391 11.5 467.243 11.509 473.336 12.0068C479.294 12.4937 482.552 13.3904 484.938 14.6064C490.301 17.3388 494.661 21.6989 497.394 27.0615C498.61 29.4483 499.506 32.7056 499.993 38.6641C500.491 44.7572 500.5 52.6092 500.5 64V300.8C500.5 337.953 500.491 365.126 498.74 386.561C497 407.861 493.596 422.479 487.366 434.706C475.813 457.379 457.379 475.813 434.706 487.366C422.479 493.596 407.861 497 386.561 498.74C365.126 500.491 337.953 500.5 300.8 500.5H64C52.6092 500.5 44.7572 500.491 38.6641 499.993C32.7056 499.506 29.4483 498.61 27.0615 497.394C21.6989 494.661 17.3388 490.301 14.6064 484.938C13.3904 482.552 12.4937 479.294 12.0068 473.336C11.509 467.243 11.5 459.391 11.5 448L11.5 211.2C11.5 174.047 11.5085 146.874 13.2598 125.439C15.0001 104.139 18.4039 89.5207 24.6338 77.2939C36.1865 54.6206 54.6206 36.1865 77.2939 24.6338C89.5207 18.4039 104.139 15.0001 125.439 13.2598C146.874 11.5085 174.047 11.5 211.2 11.5Z" stroke="url(#paint1_linear_3459_90)" stroke-width="23"/>
<path d="M102 91H232.463V420.515H102V91ZM274.172 397.481C274.172 364.02 293.572 341.309 332.371 329.347C347.244 324.821 366.402 322.558 389.843 322.558H409V421H274.172V397.481Z" fill="url(#paint2_linear_3459_90)"/>
<defs>
<linearGradient id="paint0_linear_3459_90" x1="256" y1="0" x2="256" y2="512" gradientUnits="userSpaceOnUse">
<stop stop-color="white"/>
<stop offset="1"/>
</linearGradient>
<linearGradient id="paint1_linear_3459_90" x1="30.5" y1="-27" x2="471.5" y2="521" gradientUnits="userSpaceOnUse">
<stop stop-color="white"/>
<stop offset="0.207401" stop-color="#4C4C4C"/>
<stop offset="0.336538" stop-color="#7F7F7F"/>
<stop offset="0.485576" stop-color="#5E5E5E"/>
<stop offset="0.70673" stop-color="#616161"/>
<stop offset="0.807692" stop-color="#A8A8A8"/>
<stop offset="1" stop-color="#4C4C4C"/>
</linearGradient>
<linearGradient id="paint2_linear_3459_90" x1="149.552" y1="58.4995" x2="589.431" y2="465.086" gradientUnits="userSpaceOnUse">
<stop stop-color="white"/>
<stop offset="0.207401" stop-color="#A3A3A3"/>
<stop offset="0.336538" stop-color="#D6D6D6"/>
<stop offset="0.485576" stop-color="#7A7A7A"/>
<stop offset="0.70673" stop-color="#D3D3D3"/>
<stop offset="0.807692" stop-color="white"/>
</linearGradient>
</defs>
</svg>
